<svg xmlns="http://www.w3.org/2000/svg" width="126.723" height="31.407" viewBox="0 0 126.723 31.407"><defs><style>.a{fill:#7e50e5;}.a,.b,.c,.d,.e{fill-rule:evenodd;}.b{fill:#ba8271;}.c{fill:#524666;}.d{fill:#efd1c4;}.e{fill:#45d0c1;}</style></defs><g transform="translate(0 -0.333)"><g transform="translate(0 0.333)"><g transform="translate(0 0)"><g transform="translate(3.754 0.703)"><path class="a" d="M30.487,15.56A15.268,15.268,0,0,0,15.479.042,15.258,15.258,0,0,0,.143,15.227,15.268,15.268,0,0,0,15.15,30.744,15.259,15.259,0,0,0,30.487,15.56" transform="translate(-0.142 -0.041)"/></g><g transform="translate(7.023 21.169)"><g transform="translate(19.958 2.046)"><path class="b" d="M31.071,30.018c.391.228.759.461,1.1.694a12.33,12.33,0,0,0-1.1-.694" transform="translate(-31.071 -30.018)"/></g><g transform="translate(0.172 0.842)"><path class="b" d="M20.123,35.438a.63.63,0,0,1-.4.139.8.8,0,0,1-.11-.008c-.855-.119-1.96-1.642-2.007-1.707a.141.141,0,0,1,.03-.2.137.137,0,0,1,.193.031c.3.415,1.208,1.509,1.822,1.6a.377.377,0,0,0,.3-.074c.556-.443-.045-1.961-.324-2.508a.141.141,0,0,1,.06-.188.138.138,0,0,1,.186.06c.113.223,1.082,2.192.249,2.856M15.159,36.47a.459.459,0,0,1-.113.015.358.358,0,0,1-.237-.087c-.3-.256-.271-1.01-.2-2.045a6.781,6.781,0,0,0,.031-.958,4.057,4.057,0,0,0-.427.714c-.385.735-.865,1.65-1.495,1.313-.89-.475-.03-2.847.071-3.116a.138.138,0,0,1,.178-.081.14.14,0,0,1,.08.18c-.348.927-.71,2.5-.2,2.77.387.207.795-.571,1.122-1.2.272-.519.435-.816.638-.891a.2.2,0,0,1,.194.026c.16.122.141.474.084,1.26-.047.648-.118,1.627.1,1.811a.105.105,0,0,0,.105.015c.824-.208,1.571-2,1.533-2.253a.139.139,0,0,1,.116-.159.137.137,0,0,1,.157.117c.062.41-.784,2.325-1.739,2.566m4.406-7.629A11.592,11.592,0,0,0,16.4,28.48a19.554,19.554,0,0,0-3.775.348c-.274-.354-.887-.49-1.746-.337a19.117,19.117,0,0,0-6.152,3.7,15.333,15.333,0,0,0,2.87,2.725,7.763,7.763,0,0,1,1.05-1.407l.119-1.61a.142.142,0,0,1,.148-.129.139.139,0,0,1,.127.15l-.28,3.766A15.01,15.01,0,0,0,24,35.779l-.169-3.7a.139.139,0,0,1,.131-.146.136.136,0,0,1,.144.133l.089,1.952a8.32,8.32,0,0,1,.763,1.15,15.314,15.314,0,0,0,2.961-2.66,19.029,19.029,0,0,0-6.637-4.083,2.224,2.224,0,0,0-1.716.412" transform="translate(-4.724 -28.416)"/></g><g transform="translate(14.859 0.071)"><path class="c" d="M29.38,29.364a17.439,17.439,0,0,0-4.932-1.972.14.14,0,0,0-.06.273,16.124,16.124,0,0,1,1.764.508,19.031,19.031,0,0,1,6.637,4.084c.06-.07.122-.14.18-.211a19.777,19.777,0,0,0-2.487-1.988c-.344-.233-.712-.466-1.1-.694" transform="translate(-24.281 -27.389)"/></g><g transform="translate(0 0)"><path class="c" d="M13.092,27.571a.14.14,0,0,0,.108-.164.138.138,0,0,0-.163-.109,18.785,18.785,0,0,0-8.544,4.4q.085.11.172.217a19.107,19.107,0,0,1,6.152-3.7,16.263,16.263,0,0,1,2.274-.64" transform="translate(-4.494 -27.294)"/></g><g transform="translate(19.278 4.363)"><path class="c" d="M30.441,33.238A.137.137,0,0,0,30.3,33.1a.139.139,0,0,0-.132.146l.169,3.7c.09-.052.18-.1.269-.158l-.05-1.1a8.523,8.523,0,0,1,.5.809c.08-.053.159-.107.238-.161a8.3,8.3,0,0,0-.763-1.15Z" transform="translate(-30.165 -33.104)"/></g><g transform="translate(3.042 4.198)"><path class="c" d="M9.991,33.034a.139.139,0,0,0-.127-.15.142.142,0,0,0-.148.129L9.6,34.623a7.763,7.763,0,0,0-1.05,1.407c.077.056.152.115.23.17a7.9,7.9,0,0,1,.786-1.117l-.116,1.56c.087.054.177.105.265.158Z" transform="translate(-8.546 -32.885)"/></g><g transform="translate(7.772 4.641)"><path class="c" d="M19.261,35.047a.139.139,0,0,0-.116.159c.038.254-.709,2.045-1.533,2.253a.1.1,0,0,1-.105-.015c-.216-.184-.145-1.163-.1-1.811.057-.785.076-1.138-.084-1.26a.2.2,0,0,0-.194-.026c-.2.075-.366.372-.637.891-.327.626-.735,1.4-1.122,1.2-.509-.272-.147-1.844.2-2.77a.14.14,0,0,0-.08-.18.138.138,0,0,0-.178.081c-.1.269-.961,2.641-.071,3.116.63.337,1.11-.578,1.495-1.313a4.082,4.082,0,0,1,.427-.714,6.826,6.826,0,0,1-.031.957c-.075,1.036-.105,1.789.2,2.045a.36.36,0,0,0,.237.087.46.46,0,0,0,.112-.015c.955-.241,1.8-2.155,1.739-2.566a.137.137,0,0,0-.157-.117" transform="translate(-14.844 -33.475)"/></g><g transform="translate(13.026 4.933)"><path class="c" d="M23.951,33.878a.141.141,0,0,0-.06.188c.279.547.88,2.065.323,2.508a.378.378,0,0,1-.3.074c-.614-.086-1.523-1.181-1.822-1.6a.137.137,0,0,0-.193-.031.141.141,0,0,0-.03.2c.047.065,1.152,1.588,2.007,1.707a.787.787,0,0,0,.11.008.628.628,0,0,0,.4-.139c.833-.664-.135-2.633-.249-2.855a.137.137,0,0,0-.186-.06" transform="translate(-21.84 -33.863)"/></g></g><g transform="translate(0 0)"><path class="b" d="M24.682,5.526s-1.76-4.569.973-4.98c2.412-.362,2.623,3.072,2.067,4.635" transform="translate(-6.008 -0.38)"/><path class="c" d="M24.636,5.62a.138.138,0,0,1-.128-.089c-.044-.115-1.077-2.838-.245-4.3A1.735,1.735,0,0,1,25.59.361a1.826,1.826,0,0,1,1.793.657,4.987,4.987,0,0,1,.423,4.164.137.137,0,0,1-.176.084.141.141,0,0,1-.082-.179,4.745,4.745,0,0,0-.378-3.891A1.546,1.546,0,0,0,25.63.638a1.455,1.455,0,0,0-1.129.73c-.766,1.349.253,4.033.263,4.06a.141.141,0,0,1-.078.181.136.136,0,0,1-.05.01" transform="translate(-5.962 -0.333)"/><path class="d" d="M48.211,19.145A4.469,4.469,0,0,0,44.461,14.1a4.428,4.428,0,0,0-4.588,4.26,4.468,4.468,0,0,0,3.749,5.043,4.428,4.428,0,0,0,4.588-4.26" transform="translate(-9.925 -3.758)"/><path class="c" d="M44.06,14.179a4.366,4.366,0,0,0-4.1,4.15A4.335,4.335,0,0,0,43.59,23.22c.114.011.229.016.343.016a4.366,4.366,0,0,0,4.1-4.15,4.8,4.8,0,0,0-.9-3.306A3.835,3.835,0,0,0,44.4,14.2c-.114-.011-.229-.016-.343-.016m-.127,9.336c-.122,0-.246-.006-.368-.017a4.613,4.613,0,0,1-3.873-5.2,4.644,4.644,0,0,1,4.369-4.4c.122,0,.246.006.368.017A4.106,4.106,0,0,1,47.35,15.61a5.083,5.083,0,0,1,.952,3.5,4.644,4.644,0,0,1-4.369,4.4" transform="translate(-9.88 -3.712)"/><path class="c" d="M47.151,19.437h-.013a.139.139,0,0,1-.124-.152,2.661,2.661,0,0,0-2.222-3,2.328,2.328,0,0,0-1.817.643,2.932,2.932,0,0,0-.906,1.9.137.137,0,1,1-.273-.026,3.213,3.213,0,0,1,.994-2.077A2.6,2.6,0,0,1,44.817,16a2.939,2.939,0,0,1,2.471,3.308.138.138,0,0,1-.136.127" transform="translate(-10.409 -4.233)"/><path class="d" d="M.2,18.613a4.464,4.464,0,0,1,3.856-4.959,4.433,4.433,0,0,1,4.5,4.361,4.464,4.464,0,0,1-3.856,4.959A4.433,4.433,0,0,1,.2,18.613" transform="translate(-0.046 -3.648)"/><path class="c" d="M4.277,13.738c-.087,0-.175,0-.263.009A4.33,4.33,0,0,0,.286,18.557a4.308,4.308,0,0,0,4.35,4.231A3.83,3.83,0,0,0,7.4,21.264a4.8,4.8,0,0,0,.967-3.286,4.341,4.341,0,0,0-4.087-4.24m.1,9.339a4.618,4.618,0,0,1-4.361-4.5A4.608,4.608,0,0,1,4,13.468a4.578,4.578,0,0,1,4.642,4.491,5.081,5.081,0,0,1-1.026,3.48,4.1,4.1,0,0,1-2.957,1.629c-.094.007-.189.01-.282.01" transform="translate(0 -3.602)"/><path class="c" d="M2.215,18.94a.138.138,0,0,1-.137-.13,2.936,2.936,0,0,1,2.54-3.253,2.6,2.6,0,0,1,2.011.76,3.215,3.215,0,0,1,.949,2.1.139.139,0,0,1-.127.149.137.137,0,0,1-.146-.13,2.936,2.936,0,0,0-.865-1.916,2.34,2.34,0,0,0-1.8-.684A2.658,2.658,0,0,0,2.352,18.79a.139.139,0,0,1-.127.149h-.01" transform="translate(-0.516 -4.123)"/><path class="b" d="M34.174,15.806c-.054,5.081-5.441,9.142-13.181,9.056S8.494,20.6,8.548,15.523s4.9-9.148,12.642-9.062,13.039,4.265,12.985,9.346" transform="translate(-2.129 -1.859)"/><path class="c" d="M17.746,24.756l-.024,0c-.546-.1-.918-.2-.934-.2-5.161-1.219-8.468-4.751-8.423-9,.048-4.522,3.75-8.039,9.431-8.96a.137.137,0,0,1,.157.116.14.14,0,0,1-.114.16c-5.542.9-9.153,4.309-9.2,8.687-.044,4.172,3.1,7.514,8.215,8.721.007,0,.382.1.916.2a.14.14,0,0,1,.111.162.138.138,0,0,1-.135.115" transform="translate(-2.083 -1.892)"/><path class="c" d="M28.762,24.811a.138.138,0,0,1-.136-.12.14.14,0,0,1,.117-.159c.471-.067.829-.136.833-.137,5.481-1.02,9.193-4.476,9.237-8.6.05-4.69-4.46-8.432-10.966-9.1a.14.14,0,0,1,.028-.278c6.654.683,11.265,4.54,11.213,9.381-.045,4.263-3.847,7.828-9.461,8.873,0,0-.367.071-.845.139h-.019" transform="translate(-6.904 -1.848)"/><path class="d" d="M17.968,9.62s1.095,3.195,2.268,2.86,1.023-3.213,1.023-3.213,1.733,3.634,3,3.643c1.309.009,1.173-3.7,1.173-3.7s7.537.632,7.462,7.692S22.18,24.089,21.536,24.081s-10.775-.418-10.7-7.553S17.968,9.62,17.968,9.62" transform="translate(-2.699 -2.543)"/><path class="c" d="M18.133,18.425a1.385,1.385,0,1,0-1.4,1.4,1.4,1.4,0,0,0,1.4-1.4" transform="translate(-3.826 -4.483)"/><path class="c" d="M14.139,14.59a.451.451,0,0,1-.174-.035.47.47,0,0,1-.248-.609,2.953,2.953,0,0,1,2.85-1.889,2.334,2.334,0,0,1,1.64.894.473.473,0,0,1-.068.656.451.451,0,0,1-.643-.07,1.408,1.408,0,0,0-1.015-.551c-1.32-.13-1.912,1.3-1.918,1.315a.457.457,0,0,1-.423.289" transform="translate(-3.407 -3.25)"/><path class="c" d="M31.583,18.574A1.385,1.385,0,1,1,32.952,20a1.4,1.4,0,0,1-1.369-1.428" transform="translate(-7.866 -4.528)"/><path class="c" d="M35.054,14.819a.457.457,0,0,1-.426-.3,2.053,2.053,0,0,0-1.89-1.359,1.407,1.407,0,0,0-1.027.529.45.45,0,0,1-.644.055.473.473,0,0,1-.054-.657,2.333,2.333,0,0,1,1.658-.857,2.97,2.97,0,0,1,2.809,1.951.47.47,0,0,1-.261.6.448.448,0,0,1-.165.032" transform="translate(-7.697 -3.295)"/><path class="c" d="M24.352,20.292h0a2.879,2.879,0,0,1-1.442-.557c-.458-.282-.75-.446-.964-.285a.136.136,0,0,1-.192-.03.142.142,0,0,1,.029-.2c.373-.281.808-.013,1.269.271a2.68,2.68,0,0,0,1.3.516.14.14,0,0,1,0,.28" transform="translate(-5.411 -5.008)"/><path class="c" d="M25.193,20.308h-.017a.14.14,0,0,1,0-.28h.016a2.708,2.708,0,0,0,1.3-.487c.467-.273.908-.532,1.274-.243a.142.142,0,0,1,.025.2.136.136,0,0,1-.192.025c-.211-.166-.506-.008-.97.264a2.913,2.913,0,0,1-1.436.524" transform="translate(-6.236 -5.025)"/><path class="b" d="M19.053,5.77s-4.217-2.605-2.382-4.662C18.225-.636,22.2,2.476,22.6,5.055" transform="translate(-4.037 -0.4)"/><path class="c" d="M19.007,5.863a.135.135,0,0,1-.071-.02c-.108-.067-2.646-1.653-2.892-3.38a1.791,1.791,0,0,1,.479-1.5A1.907,1.907,0,0,1,18.638.547a6.484,6.484,0,0,1,4.053,4.439.14.14,0,0,1-.114.16.136.136,0,0,1-.157-.116A6.268,6.268,0,0,0,18.559.815a1.7,1.7,0,0,0-1.833.339,1.5,1.5,0,0,0-.411,1.267c.227,1.6,2.737,3.166,2.762,3.181a.142.142,0,0,1,.046.192.137.137,0,0,1-.118.067" transform="translate(-3.991 -0.353)"/><path class="c" d="M23.353,24.349A12.526,12.526,0,0,1,20.9,24.11a10.117,10.117,0,0,1-3.3-1.211.142.142,0,0,1-.042-.193.136.136,0,0,1,.189-.043c.047.031,4.808,3.035,11.291.153a3.751,3.751,0,0,0-1.183-.335.14.14,0,0,1-.111-.163.137.137,0,0,1,.159-.113c1.226.225,1.421.425,1.449.59a.229.229,0,0,1-.11.233,14.251,14.251,0,0,1-5.9,1.32" transform="translate(-4.369 -5.78)"/><path class="e" d="M81.235,27.226V12.76a.284.284,0,0,1,.281-.286h2.958a.284.284,0,0,1,.281.286v1.753a4.282,4.282,0,0,1,4.611-2.243h0a.342.342,0,0,1,.3.342v2.922a.336.336,0,0,1-.313.339,5.355,5.355,0,0,0-2.309.675,3.975,3.975,0,0,0-1.974,1.971v8.7a.542.542,0,0,1-.535.548l-2.762.008a.542.542,0,0,1-.538-.547" transform="translate(-20.231 -3.294)"/><path class="e" d="M136.34,27.226V12.8a.323.323,0,0,1,.32-.327h2.88a.323.323,0,0,1,.32.327v1.712a4.282,4.282,0,0,1,4.612-2.243h0a.342.342,0,0,1,.3.342v2.922a.337.337,0,0,1-.314.339,5.355,5.355,0,0,0-2.309.675,3.978,3.978,0,0,0-1.974,1.971v8.7a.542.542,0,0,1-.535.548l-2.762.008a.542.542,0,0,1-.538-.547" transform="translate(-33.955 -3.294)"/><path class="e" d="M121.531,24.17a4.284,4.284,0,1,1,4.2-4.283,4.241,4.241,0,0,1-4.2,4.283m0-12.356a8.074,8.074,0,1,0,7.91,8.073,7.993,7.993,0,0,0-7.91-8.073" transform="translate(-28.296 -3.193)"/><g transform="translate(111.046 8.621)"><path class="e" d="M12.295,9.434a.435.435,0,0,0-.4.286,4.2,4.2,0,0,1-3.911,2.727,4.156,4.156,0,0,1-3.255-1.581l7.445-2.827L15.25,6.8a.631.631,0,0,0,.368-.748A7.943,7.943,0,0,0,7.982.091,7.952,7.952,0,0,0,.077,7.849a8,8,0,0,0,7.9,8.387,7.956,7.956,0,0,0,7.762-6.509.244.244,0,0,0-.236-.293ZM7.981,3.88a4.161,4.161,0,0,1,3.387,1.762L3.8,8.514c-.009-.116-.017-.232-.017-.351A4.241,4.241,0,0,1,7.981,3.88Z" transform="translate(-0.071 -0.091)"/></g><path class="e" d="M107.747,12.665a5.13,5.13,0,0,0-3.411,2.779,6.485,6.485,0,0,0-.371.9l-2.347,7-2.341-6.98a6.528,6.528,0,0,0-.324-.81,5.12,5.12,0,0,0-3.679-2.92,4.215,4.215,0,0,0-1.383-.036l5.4,14.8a.655.655,0,0,0,.614.437h3.2a.631.631,0,0,0,.164-.023h.074a.655.655,0,0,0,.614-.437l5.4-14.8a4.283,4.283,0,0,0-1.6.082" transform="translate(-23.383 -3.374)"/><path class="e" d="M69.608,8.359l-.184-.5c-.174-.538-.479-.755-1.192-.755l-1.749,0a1.213,1.213,0,0,0-1.282.905l-.738,2.007a7.535,7.535,0,0,1,4.758-1.669c.145,0,.273,0,.387.011" transform="translate(-16.054 -2.02)"/><path class="e" d="M63.145,19.7l2.233-6.184L67.448,19.7ZM68,10.371a4.741,4.741,0,0,0-.724-.047,6.317,6.317,0,0,0-5.8,3.681q-.072.143-.141.293c-.019.042-.038.082-.057.125-.062.141-.122.285-.18.435L56.7,26.585a.461.461,0,0,0,.422.627h3.346a.453.453,0,0,0,.425-.3l1.636-4.549H68.12l1.663,4.551a.453.453,0,0,0,.424.3h3.4a.461.461,0,0,0,.423-.626Z" transform="translate(-14.112 -2.821)"/></g></g></g></g></svg>