<svg xmlns="http://www.w3.org/2000/svg" width="105.589" height="86.26" viewBox="0 0 105.589 86.26"><defs><style>.a{fill:#98e6aa;}.a,.b,.c,.d{fill-rule:evenodd;}.b{fill:#ba8271;}.c{fill:#524666;}.d{fill:#efd1c4;}</style></defs><g transform="translate(0 0)"><g transform="translate(0 0)"><g transform="translate(10.31 1.932)"><path class="a" d="M83.486,42.663C83.736,19.378,65.282.3,42.267.044S.394,18.463.144,41.748s18.2,42.366,41.219,42.619,41.874-18.419,42.124-41.7" transform="translate(-0.142 -0.041)"/></g><g transform="translate(19.288 58.142)"><g transform="translate(54.816 5.618)"><path class="b" d="M31.071,30.018c1.075.627,2.086,1.267,3.03,1.906a33.866,33.866,0,0,0-3.03-1.906" transform="translate(-31.071 -30.018)"/></g><g transform="translate(0.474 2.314)"><path class="b" d="M47.018,47.7a1.73,1.73,0,0,1-1.1.381,2.2,2.2,0,0,1-.3-.022c-2.349-.328-5.383-4.511-5.512-4.689a.387.387,0,0,1,.083-.536.375.375,0,0,1,.529.084c.821,1.139,3.318,4.146,5,4.381a1.034,1.034,0,0,0,.834-.2c1.528-1.217-.123-5.385-.889-6.888a.387.387,0,0,1,.164-.517.378.378,0,0,1,.511.165c.311.612,2.971,6.021.683,7.843M33.385,50.536a1.261,1.261,0,0,1-.309.041.984.984,0,0,1-.651-.24c-.827-.7-.745-2.773-.539-5.617a18.626,18.626,0,0,0,.086-2.631A11.14,11.14,0,0,0,30.8,44.05c-1.057,2.02-2.375,4.533-4.1,3.607-2.445-1.306-.082-7.82.2-8.559a.378.378,0,0,1,.49-.222.385.385,0,0,1,.219.494c-.955,2.545-1.95,6.861-.552,7.608,1.063.568,2.183-1.568,3.081-3.286.746-1.425,1.2-2.241,1.751-2.447a.547.547,0,0,1,.532.072c.438.335.388,1.3.232,3.461-.13,1.779-.324,4.467.27,4.975a.289.289,0,0,0,.289.041c2.263-.571,4.315-5.489,4.21-6.188a.383.383,0,0,1,.318-.437.377.377,0,0,1,.431.322c.169,1.127-2.153,6.386-4.775,7.046m12.1-20.952a31.838,31.838,0,0,0-8.7-.992,53.7,53.7,0,0,0-10.369.956c-.753-.972-2.437-1.345-4.8-.927a52.5,52.5,0,0,0-16.9,10.165,42.112,42.112,0,0,0,7.882,7.485,21.322,21.322,0,0,1,2.884-3.864l.328-4.421a.39.39,0,0,1,.406-.354.382.382,0,0,1,.35.411l-.768,10.343a41.226,41.226,0,0,0,41.855.252L57.2,38.487a.381.381,0,0,1,.361-.4.375.375,0,0,1,.4.366l.245,5.362a22.851,22.851,0,0,1,2.1,3.159,42.06,42.06,0,0,0,8.133-7.306A52.264,52.264,0,0,0,50.2,28.452c-2.053-.161-3.82.219-4.714,1.132" transform="translate(-4.724 -28.416)"/></g><g transform="translate(40.81 0.195)"><path class="c" d="M38.287,32.812A47.9,47.9,0,0,0,24.742,27.4a.384.384,0,0,0-.164.749,44.286,44.286,0,0,1,4.845,1.4A52.269,52.269,0,0,1,47.651,40.759c.165-.193.334-.383.5-.579a54.319,54.319,0,0,0-6.83-5.461c-.944-.639-1.955-1.279-3.03-1.906" transform="translate(-24.281 -27.389)"/></g><g transform="translate(0 0)"><path class="c" d="M28.109,28.054a.384.384,0,0,0,.3-.451.379.379,0,0,0-.447-.3A51.6,51.6,0,0,0,4.494,39.381q.235.3.474.6a52.479,52.479,0,0,1,16.9-10.165,44.667,44.667,0,0,1,6.245-1.759" transform="translate(-4.494 -27.294)"/></g><g transform="translate(52.947 11.983)"><path class="c" d="M30.923,33.471a.375.375,0,0,0-.4-.366.383.383,0,0,0-.362.4l.464,10.152c.248-.144.495-.286.739-.434l-.137-3.011a23.415,23.415,0,0,1,1.381,2.223c.22-.145.436-.294.653-.443a22.779,22.779,0,0,0-2.1-3.16Z" transform="translate(-30.165 -33.104)"/></g><g transform="translate(8.356 11.53)"><path class="c" d="M12.514,33.3a.382.382,0,0,0-.35-.411.391.391,0,0,0-.406.354L11.43,37.66a21.322,21.322,0,0,0-2.884,3.864c.211.154.418.316.632.466a21.688,21.688,0,0,1,2.158-3.068l-.318,4.284c.24.15.485.289.728.434Z" transform="translate(-8.546 -32.885)"/></g><g transform="translate(21.345 12.748)"><path class="c" d="M26.977,37.793a.382.382,0,0,0-.318.436c.1.7-1.947,5.617-4.21,6.188a.287.287,0,0,1-.289-.042c-.594-.507-.4-3.2-.27-4.975.157-2.157.207-3.125-.232-3.461a.547.547,0,0,0-.532-.071c-.556.205-1.005,1.022-1.75,2.447-.9,1.719-2.018,3.856-3.081,3.287-1.4-.748-.4-5.063.551-7.608a.385.385,0,0,0-.219-.5.378.378,0,0,0-.489.223c-.277.738-2.64,7.253-.2,8.558,1.73.926,3.049-1.587,4.1-3.606a11.211,11.211,0,0,1,1.174-1.96,18.748,18.748,0,0,1-.085,2.63c-.207,2.845-.289,4.914.538,5.618a.99.99,0,0,0,.652.239,1.265,1.265,0,0,0,.308-.04c2.623-.662,4.946-5.919,4.776-7.047a.377.377,0,0,0-.431-.322" transform="translate(-14.844 -33.475)"/></g><g transform="translate(35.776 13.547)"><path class="c" d="M27.638,33.905a.386.386,0,0,0-.164.517c.766,1.5,2.417,5.672.888,6.889a1.038,1.038,0,0,1-.834.2c-1.686-.236-4.183-3.242-5-4.381a.376.376,0,0,0-.53-.085.388.388,0,0,0-.084.536c.129.178,3.164,4.361,5.513,4.689a2.161,2.161,0,0,0,.3.023,1.725,1.725,0,0,0,1.1-.382c2.288-1.822-.372-7.231-.683-7.842a.377.377,0,0,0-.511-.166" transform="translate(-21.84 -33.863)"/></g></g><g transform="translate(0 0)"><path class="b" d="M25.656,14.27S20.823,1.72,28.329.592c6.624-1,7.2,8.437,5.676,12.729" transform="translate(25.633 -0.136)"/><path class="c" d="M25.852,14.852a.378.378,0,0,1-.351-.243c-.122-.317-2.958-7.8-.674-11.818A4.766,4.766,0,0,1,28.47.409a5.016,5.016,0,0,1,4.923,1.8c2.362,2.956,2.192,8.54,1.162,11.436a.376.376,0,0,1-.482.23.386.386,0,0,1-.226-.492c.945-2.655,1.12-7.989-1.038-10.687a4.247,4.247,0,0,0-4.229-1.53,4,4,0,0,0-3.1,2.006c-2.1,3.705.7,11.078.724,11.152a.386.386,0,0,1-.213.5.375.375,0,0,1-.137.027" transform="translate(25.437 -0.333)"/><path class="d" d="M62.809,27.982c.636-7.056-3.975-13.257-10.3-13.85s-11.965,4.645-12.6,11.7,3.974,13.257,10.3,13.85,11.965-4.645,12.6-11.7" transform="translate(42.344 14.279)"/><path class="c" d="M51.728,14.668c-5.731,0-10.672,5.006-11.248,11.4-.615,6.833,3.851,12.86,9.956,13.433.313.029.629.044.942.044,5.732,0,10.674-5.005,11.249-11.4a13.179,13.179,0,0,0-2.464-9.081,10.532,10.532,0,0,0-7.493-4.351c-.313-.029-.63-.044-.943-.044m-.35,25.643c-.336,0-.676-.015-1.011-.047C43.848,39.651,39.076,33.251,39.73,26c.611-6.783,5.882-12.1,12-12.1.336,0,.676.016,1.012.047A11.277,11.277,0,0,1,60.764,18.6a13.962,13.962,0,0,1,2.614,9.616c-.611,6.783-5.882,12.1-12,12.1" transform="translate(42.15 14.08)"/><path class="c" d="M56.5,25.457l-.035,0a.382.382,0,0,1-.341-.417c.378-4.2-2.36-7.9-6.1-8.251a6.394,6.394,0,0,0-4.99,1.767,8.051,8.051,0,0,0-2.487,5.208.377.377,0,1,1-.75-.07,8.825,8.825,0,0,1,2.73-5.706,7.131,7.131,0,0,1,5.565-1.965c4.158.39,7.2,4.467,6.785,9.087a.38.38,0,0,1-.374.349" transform="translate(44.409 16.302)"/><path class="d" d="M.217,27.29c-.486-7.069,4.255-13.166,10.59-13.619S22.67,18.58,23.155,25.649,18.9,38.814,12.565,39.267.7,34.358.217,27.29" transform="translate(0.194 13.81)"/><path class="c" d="M11.748,14.227c-.239,0-.479.009-.721.026C4.91,14.691.316,20.616.786,27.462c.468,6.8,5.81,12.054,11.947,11.62A10.518,10.518,0,0,0,20.317,34.9a13.181,13.181,0,0,0,2.657-9.025c-.449-6.53-5.379-11.646-11.226-11.646m.265,25.649c-6.24,0-11.5-5.429-11.977-12.361-.5-7.269,4.408-13.562,10.939-14.03,6.579-.466,12.255,5.118,12.751,12.333a13.954,13.954,0,0,1-2.818,9.557,11.262,11.262,0,0,1-8.12,4.473c-.259.019-.518.027-.774.027" transform="translate(0 13.612)"/><path class="c" d="M2.468,24.86a.379.379,0,0,1-.375-.357C1.775,19.874,4.9,15.867,9.07,15.568a7.134,7.134,0,0,1,5.523,2.088A8.829,8.829,0,0,1,17.2,23.421a.382.382,0,0,1-.349.41.376.376,0,0,1-.4-.356,8.065,8.065,0,0,0-2.376-5.262,6.428,6.428,0,0,0-4.951-1.878c-3.751.269-6.567,3.908-6.279,8.114a.382.382,0,0,1-.349.41H2.468" transform="translate(2.2 15.834)"/><path class="b" d="M78.932,32.132c-.149,13.956-14.944,25.109-36.2,24.874S8.4,45.31,8.548,31.352,22.012,6.227,43.269,6.463,79.081,18.175,78.932,32.132" transform="translate(9.081 6.175)"/><path class="c" d="M34.132,56.479a.36.36,0,0,1-.066-.006c-1.5-.274-2.522-.547-2.565-.559C17.327,52.567,8.242,42.867,8.366,31.207c.133-12.42,10.3-22.079,25.9-24.61a.375.375,0,0,1,.431.318.383.383,0,0,1-.312.44C19.165,9.825,9.247,19.19,9.119,31.215,9,42.674,17.643,51.852,31.682,55.168c.02.006,1.05.281,2.516.548a.383.383,0,0,1,.3.446.379.379,0,0,1-.37.317" transform="translate(8.887 6.316)"/><path class="c" d="M30.578,56.939a.38.38,0,0,1-.373-.33.385.385,0,0,1,.321-.435c1.294-.184,2.277-.375,2.287-.377,15.054-2.8,25.248-12.295,25.368-23.622.137-12.88-12.248-23.158-30.12-24.991a.384.384,0,0,1,.076-.765c18.274,1.876,30.939,12.47,30.8,25.764-.124,11.707-10.566,21.5-25.984,24.371-.007,0-1.008.194-2.32.383a.383.383,0,0,1-.053,0" transform="translate(29.455 6.129)"/><path class="d" d="M30.423,10.347s3.007,8.775,6.229,7.854,2.81-8.826,2.81-8.826,4.76,9.982,8.23,10C51.288,19.4,50.913,9.2,50.913,9.2s20.7,1.734,20.5,21.128S41.992,50.084,40.223,50.064,10.629,48.917,10.838,29.32,30.423,10.347,30.423,10.347" transform="translate(11.514 9.092)"/><path class="c" d="M22.968,20.919a3.8,3.8,0,1,0-3.843,3.838,3.844,3.844,0,0,0,3.843-3.838" transform="translate(16.325 17.372)"/><path class="c" d="M14.937,19.037a1.24,1.24,0,0,1-.478-.1,1.291,1.291,0,0,1-.682-1.673c.094-.235,2.364-5.726,7.827-5.187a6.41,6.41,0,0,1,4.5,2.456,1.3,1.3,0,0,1-.188,1.8,1.239,1.239,0,0,1-1.766-.193,3.867,3.867,0,0,0-2.788-1.514c-3.625-.356-5.252,3.573-5.267,3.612a1.256,1.256,0,0,1-1.162.794" transform="translate(14.537 12.108)"/><path class="c" d="M31.583,21.015a3.8,3.8,0,1,1,3.761,3.922,3.841,3.841,0,0,1-3.761-3.922" transform="translate(33.558 17.563)"/><path class="c" d="M42.3,19.35a1.256,1.256,0,0,1-1.17-.816c-.066-.171-1.588-4-5.192-3.732a3.865,3.865,0,0,0-2.819,1.452,1.237,1.237,0,0,1-1.769.152A1.3,1.3,0,0,1,31.2,14.6a6.409,6.409,0,0,1,4.554-2.354c5.452-.41,7.626,5.123,7.715,5.359a1.29,1.29,0,0,1-.718,1.657,1.231,1.231,0,0,1-.453.087" transform="translate(32.837 12.301)"/><path class="c" d="M28.938,22.364h0a7.908,7.908,0,0,1-3.96-1.529c-1.257-.774-2.06-1.226-2.648-.783a.373.373,0,0,1-.527-.081.39.39,0,0,1,.08-.537c1.024-.771,2.219-.035,3.484.745a7.362,7.362,0,0,0,3.578,1.418.385.385,0,0,1,0,.769" transform="translate(23.084 19.612)"/><path class="c" d="M25.461,22.294h-.047a.385.385,0,0,1,0-.769.368.368,0,0,0,.043,0,7.439,7.439,0,0,0,3.57-1.339c1.282-.751,2.493-1.46,3.5-.666a.389.389,0,0,1,.069.539.372.372,0,0,1-.528.069c-.579-.456-1.39-.021-2.664.725a8,8,0,0,1-3.944,1.44" transform="translate(26.606 19.682)"/><path class="b" d="M24.021,14.8S12.438,7.642,17.479,1.992C21.748-2.8,32.663,5.75,33.766,12.834" transform="translate(17.221 -0.049)"/><path class="c" d="M24.215,15.382a.371.371,0,0,1-.2-.056c-.3-.183-7.268-4.54-7.942-9.284a4.918,4.918,0,0,1,1.317-4.109C18.735.43,20.741.031,23.2.782,28.274,2.329,33.58,8.141,34.332,12.973a.383.383,0,0,1-.312.44.373.373,0,0,1-.431-.318c-.7-4.5-5.854-10.127-10.6-11.576-1.508-.459-3.6-.671-5.034.932a4.126,4.126,0,0,0-1.128,3.481c.622,4.385,7.518,8.694,7.587,8.737a.39.39,0,0,1,.127.528.376.376,0,0,1-.323.185" transform="translate(17.027 -0.249)"/><path class="c" d="M33.5,28.1a34.4,34.4,0,0,1-6.737-.657,27.786,27.786,0,0,1-9.051-3.327.389.389,0,0,1-.115-.53.373.373,0,0,1,.52-.119c.13.085,13.206,8.336,31.011.422a10.3,10.3,0,0,0-3.248-.921.383.383,0,0,1-.3-.447.377.377,0,0,1,.437-.31c3.367.618,3.9,1.167,3.98,1.622a.629.629,0,0,1-.3.641A39.141,39.141,0,0,1,33.5,28.1" transform="translate(18.639 22.903)"/></g></g></g></svg>